# AST/ASF file generated using VICON BodyLanguage
# -----------------------------------------------
:version 1.10
:name VICON
:units
  mass 1.0
  length 0.45
  angle deg
:documentation
   .ast/.asf automatically generated from VICON data using
   VICON BodyBuilder and BodyLanguage model FoxedUp or BRILLIANT.MOD
:root
   order TX TY TZ RX RY RZ
   axis XYZ
   position 0 0 0  
   orientation 0 0 0 
:bonedata
  begin
     id 1 
     name lhipjoint
     direction 0.625129 -0.738222 0.253461 
     length 2.5165 
     axis 0 0 0  XYZ
  end
  begin
     id 2 
     name lfemur
     direction 0.34202 -0.939693 0  
     length 7.54288  
     axis 0 0 20  XYZ
    dof rx ry rz
    limits (-160.0 20.0)
           (-70.0 70.0)
           (-60.0 70.0)
  end
  begin
     id 3 
     name ltibia
     direction 0.34202 -0.939693 0   
     length 7.71864   
     axis 0 0 20   XYZ
    dof rx
    limits (-10.0 170.0)
  end
  begin
     id 4 
     name lfoot
     direction 0.0772037 -0.212115 0.97419   
     length 2.18429   
     axis -90 7.62852e-016 20   XYZ
    dof rx rz
    limits (-45.0 90.0)
           (-70.0 20.0)
  end
  begin
     id 5 
     name ltoes
     direction 1.53513e-011 -4.21834e-011 1   
     length 1.09718   
     axis -90 7.62852e-016 20   XYZ
    dof rx
    limits (-90.0 20.0)
  end
  begin
     id 6 
     name rhipjoint
     direction -0.621946 -0.740623 0.254285   
     length 2.50835  
     axis 0 0 0  XYZ 
  end
  begin
     id 7 
     name rfemur
     direction -0.34202 -0.939693 0   
     length 7.43366   
     axis 0 0 -20   XYZ
    dof rx ry rz
    limits (-160.0 20.0)
           (-70.0 70.0)
           (-70.0 60.0)
  end
  begin
     id 8 
     name rtibia
     direction -0.34202 -0.939693 0   
     length 7.77122   
     axis 0 0 -20   XYZ
    dof rx
    limits (-10.0 170.0)
 end
 begin
     id 9 
     name rfoot
     direction -0.082694 -0.2272 0.970331   
     length 2.2293  
     axis -90 -7.62852e-016 -20   XYZ
    dof rx rz
    limits (-45.0 90.0)
           (-20.0 70.0)
  end
  begin
     id 10 
     name rtoes
     direction -1.53565e-011 -4.21695e-011 1   
     length 1.1178   
     axis -90 -7.62852e-016 -20   XYZ
    dof rx
    limits (-90.0 20.0)
  end
  begin
     id 11 
     name lowerback
     direction -0.000695208 0.988391 -0.151929   
     length 1.95077   
     axis 0 0 0   XYZ
    dof rx ry rz
    limits (-20.0 45.0)
           (-30.0 30.0)
           (-30.0 30.0)
  end
  begin
     id 12 
     name upperback
     direction -0.00268925 0.999885 -0.0149203   
     length 1.96246   
     axis 0 0 0   XYZ
    dof rx ry rz
    limits (-20.0 45.0)
           (-30.0 30.0)
           (-30.0 30.0)
  end
  begin
     id 13 
     name thorax
     direction -0.000848408 0.998481 0.0550912   
     length 2.00867   
     axis 0 0 0   XYZ
    dof rx ry rz
    limits (-20.0 45.0)
           (-30.0 30.0)
           (-30.0 30.0)
  end
  begin
     id 14 
     name lowerneck
     direction -0.00577709 0.998999 0.0443608   
     length 1.75762   
     axis 0 0 0   XYZ
    dof rx ry rz
    limits (-20.0 45.0)
           (-30.0 30.0)
           (-30.0 30.0)
  end
  begin
     id 15 
     name upperneck
     direction 0.0320945 0.999136 0.0264105   
     length 1.72601   
     axis 0 0 0   XYZ
    dof rx ry rz
    limits (-20.0 45.0)
           (-30.0 30.0)
           (-30.0 30.0)
  end
  begin
     id 16
     name head
     direction 0.0120552 0.999916 0.00480151  
     length 1.79973  
     axis 0 0 0   XYZ
    dof rx ry rz
    limits (-20.0 45.0)
           (-30.0 30.0)
           (-30.0 30.0)
  end
  begin
     id 17 
     name lclavicle
     direction 0.909 0.371533 -0.188897  
     length 3.47956  
     axis 0 0 0   XYZ
    dof ry rz
    limits (-20.0 10.0)
           (0.0 20.0)
  end
  begin
     id 18 
     name lhumerus
     direction 1 -4.48963e-011 -6.48352e-028   
     length 5.52302   
     axis 180 -30 -90   XYZ
    dof rx ry rz
    limits (-60.0 90.0)
           (-90.0 90.0)
           (-90.0 90.0)
  end
  begin
     id 19
     name lradius
     direction 1 -4.48968e-011 -4.78536e-027   
     length 3.58675   
     axis 180 -30 -90   XYZ
    dof rx
    limits (-10.0 170.0)
  end
  begin
     id 20
     name lwrist
     direction 1 -4.48942e-011 -9.9435e-027   
     length 1.79337   
     axis 8.54312e-015 90 90   XYZ
    dof ry
    limits (-180.0 0.0)
 end
  begin
     id 21 
     name lhand
     direction 1 -4.4904e-011 -1.9887e-026   
     length 0.536412   
     axis 1.26896e-014 90 90   XYZ
    dof rx rz
    limits (-90.0 90.0)
           (-45.0 45.0)
  end
  begin
     id 22 
     name lfingers
     direction 1 -4.48893e-011 -3.9774e-026   
     length 0.432469   
     axis 2.53792e-014 90 90   XYZ
    dof rx
    limits (0.0 90.0)
  end
  begin
     id 23
     name lthumb
     direction 0.707107 -6.34934e-011 0.707107   
     length 0.620942   
     axis -90 45 2.85299e-015   XYZ
    dof rx rz
    limits (-45.0 45.0)
           (-45.0 45.0)
  end
  begin
     id 24 
     name rclavicle
     direction -0.89595 0.416672 -0.153813   
     length 3.44099  
     axis 0 0 0   XYZ 
    dof ry rz
    limits (-10.0 20.0)
           (-20.0 0.0)
  end
  begin
     id 25 
     name rhumerus
     direction -1 -4.48952e-011 5.57804e-028  
     length 5.8478   
     axis 180 30 90   XYZ
    dof rx ry rz
    limits (-90.0 60.0)
           (-90.0 90.0)
           (-90.0 90.0)
  end
  begin
     id 26 
     name rradius
     direction -1 -4.48967e-011 -7.93646e-027   
     length 3.62717   
     axis 180 30 90   XYZ
    dof rx
    limits (-10.0 170.0)
  end
  begin
     id 27 
     name rwrist
     direction -1 -4.49008e-011 -9.9435e-027   
     length 1.81359   
     axis 8.54312e-015 -90 -90   XYZ
    dof ry
    limits (-180.0 0.0)
  end
  begin
     id 28
     name rhand
     direction -1 -4.48812e-011 -1.9887e-026   
     length 0.650516   
     axis 1.26896e-014 -90 -90   XYZ
    dof rx rz
    limits (-90.0 90.0)
           (-45.0 45.0)
  end
  begin
     id 29
     name rfingers
     direction -1 -4.49228e-011 -3.9774e-026   
     length 0.524463   
     axis 2.53792e-014 -90 -90   XYZ
    dof rx
    limits (0.0 90.0)
  end
  begin
     id 30
     name rthumb
     direction -0.707107 -6.34912e-011 0.707107   
     length 0.753027   
     axis -90 -45 -2.85299e-015   XYZ
    dof rx rz
    limits (-45.0 45.0)
           (-45.0 45.0)
  end
:hierarchy
  begin
    root lhipjoint rhipjoint lowerback
    lhipjoint lfemur
    lfemur ltibia
    ltibia lfoot
    lfoot ltoes
    rhipjoint rfemur
    rfemur rtibia
    rtibia rfoot
    rfoot rtoes
    lowerback upperback
    upperback thorax
    thorax lowerneck lclavicle rclavicle
    lowerneck upperneck
    upperneck head
    lclavicle lhumerus
    lhumerus lradius
    lradius lwrist
    lwrist lhand lthumb
    lhand lfingers
    rclavicle rhumerus
    rhumerus rradius
    rradius rwrist
    rwrist rhand rthumb
    rhand rfingers
  end

#!OML:ASF F:\VICON\USERDATA\INSTALL\rory3\rory3.ASF
:FULLY-SPECIFIED
:DEGREES
1679
root -8.40086 17.71 2.65763 -183.302 196.548 -185.986
lowerback 10.364 -1.87082 6.46084
upperback 2.49409 -1.76968 1.14074
thorax -3.35954 -0.928934 -2.20993
lowerneck -1.04027 -9.55208 -1.41203
upperneck 0.881774 -12.8422 6.47048
head 0.999418 -6.38429 2.05563
rclavicle -1.63376e-014 -1.49089e-014
rhumerus -22.4746 6.67318 -85.4826
rradius 41.0144
rwrist 13.1289
rhand -20.8491 19.7468
rfingers 7.12502
rthumb 5.52004 -10.1613
lclavicle -1.63376e-014 -1.49089e-014
lhumerus -27.8869 6.10714 80.5272
lradius 7.53738
lwrist 16.9793
lhand -40.1146 28.7268
lfingers 7.12502
lthumb -13.0783 -301.703
rfemur 12.6174 11.7296 29.5275
rtibia 20.3638
rfoot -14.4058 -3.38547
rtoes -4.05011
lfemur -17.5043 -1.09343 -7.96209
ltibia 13.247
lfoot -5.11462 7.5106
ltoes -18.1393
1680
root -8.41273 17.7118 2.48348 -183.355 196.857 -185.863
lowerback 10.5173 -1.84427 6.35603
upperback 2.54905 -1.73589 1.15472
thorax -3.38044 -0.911133 -2.1384
lowerneck -0.71022 -9.51949 -1.30693
upperneck 0.493819 -12.7809 6.65445
head 0.824849 -6.36633 2.12667
rclavicle 9.03228e-015 -3.97569e-016
rhumerus -22.3807 7.09253 -85.558
rradius 41.7372
rwrist 12.0533
rhand -19.8709 18.0576
rfingers 7.12502
rthumb 6.46442 -11.8238
lclavicle 9.03228e-015 -3.97569e-016
lhumerus -28.4648 6.15694 80.5415
lradius 7.23238
lwrist 17.4048
lhand -41.3227 24.8991
lfingers 7.12502
lthumb -14.2426 -305.609
rfemur 12.3935 11.7266 29.4511
rtibia 19.7384
rfoot -14.655 -3.50845
rtoes -3.39374
lfemur -17.6457 -0.87925 -7.89143
ltibia 13.325
lfoot -7.00537 8.05876
ltoes -17.2033
1681
root -8.42373 17.7091 2.30211 -183.449 197.002 -185.667
lowerback 10.7502 -1.89669 6.18425
upperback 2.60973 -1.80939 1.13522
thorax -3.44745 -0.947054 -2.04731
lowerneck -0.588346 -9.5169 -1.15003
upperneck 0.39021 -12.7729 6.69723
head 0.763635 -6.36631 2.12466
rclavicle -2.13259e-014 -2.56929e-014
rhumerus -22.3442 7.69025 -85.6586
rradius 42.475
rwrist 11.1386
rhand -19.8805 17.1908
rfingers 7.12502
rthumb 6.45522 -12.6908
lclavicle -2.13259e-014 -2.56929e-014
lhumerus -29.0631 6.27615 80.5251
lradius 7.01801
lwrist 17.4151
lhand -40.3503 31.2792
lfingers 7.12502
lthumb -13.3054 -299.166
rfemur 12.0793 11.5561 29.3255
rtibia 19.2766
rfoot -14.6934 -3.91041
rtoes -1.3875
lfemur -17.7914 -0.829481 -7.91822
ltibia 13.3702
lfoot -8.48733 8.93719
ltoes -15.3968
1682
root -8.43239 17.7096 2.12316 -183.454 197.205 -185.514
lowerback 10.8896 -1.85436 6.13609
upperback 2.52318 -1.74294 1.15242
thorax -3.60785 -0.919269 -2.0067
lowerneck 0.0966161 -9.55146 -1.37279
upperneck 0.0708256 -12.801 6.99269
head 0.58618 -6.39925 2.30028
rclavicle 3.42593e-014 -3.03892e-014
rhumerus -22.6562 7.99566 -85.5491
rradius 42.8521
rwrist 11.0073
rhand -20.6559 16.774
rfingers 7.12502
rthumb 5.70659 -13.1291
lclavicle 3.42593e-014 -3.03892e-014
lhumerus -29.6893 6.16412 80.6185
lradius 6.50077
lwrist 17.2205
lhand -39.4918 32.4158
lfingers 7.12502
lthumb -12.4778 -297.977
rfemur 11.5392 11.4613 29.1962
rtibia 19.0625
rfoot -14.527 -4.49741
rtoes 0.873197
lfemur -17.8914 -0.72134 -7.92627
ltibia 13.3241
lfoot -9.19627 10.121
ltoes -14.5623
1683
root -8.43966 17.7119 1.95163 -183.487 197.471 -185.131
lowerback 10.952 -1.82339 5.83667
upperback 2.4999 -1.73148 1.11087
thorax -3.65904 -0.912834 -1.88215
lowerneck 0.588691 -9.52493 -1.45649
upperneck -0.342476 -12.7418 7.20555
head 0.391701 -6.38761 2.4231
rclavicle 5.12765e-014 -3.5261e-015
rhumerus -22.8386 8.54539 -85.5326
rradius 43.4055
rwrist 10.4464
rhand -20.9984 15.7398
rfingers 7.12502
rthumb 5.37589 -14.172
lclavicle 5.12765e-014 -3.5261e-015
lhumerus -30.2191 6.21415 80.6144
lradius 6.09999
lwrist 17.0142
lhand -39.0259 31.9771
lfingers 7.12502
lthumb -12.0286 -298.389
rfemur 10.9313 11.4756 28.7367
rtibia 18.9528
rfoot -14.7546 -4.45484
rtoes 1.86641
lfemur -18.0122 -0.546059 -8.22135
ltibia 13.54
lfoot -9.25175 11.4195
ltoes -15.1264
1684
root -8.44823 17.7166 1.76933 -183.344 197.668 -185.006
lowerback 11.0392 -1.84082 5.6898
upperback 2.5531 -1.76722 1.11791
thorax -3.64985 -0.928306 -1.78606
lowerneck 0.171116 -9.52292 -1.07018
upperneck -0.177842 -12.7472 7.03073
head 0.475218 -6.37909 2.27629
rclavicle 7.37988e-015 1.23495e-014
rhumerus -22.7185 8.67906 -85.4672
rradius 43.5215
rwrist 10.521
rhand -20.9161 16.3756
rfingers 7.12502
rthumb 5.45536 -13.5342
lclavicle 7.37988e-015 1.23495e-014
lhumerus -30.3587 6.32522 80.5604
lradius 5.56609
lwrist 16.585
lhand -39.377 30.5842
lfingers 7.12502
lthumb -12.3671 -299.802
rfemur 10.1448 11.4048 28.5647
rtibia 18.8269
rfoot -15.1868 -3.96089
rtoes 2.90116
lfemur -18.43 -0.416789 -8.25307
ltibia 14.2142
lfoot -9.20744 12.5352
ltoes -14.7115
1685
root -8.45843 17.7182 1.58139 -183.169 197.794 -185.208
lowerback 11.1916 -1.89516 5.81582
upperback 2.57946 -1.81058 1.23214
thorax -3.70928 -0.951669 -1.72734
lowerneck -0.503524 -9.4708 -0.789277
upperneck 0.561169 -12.7248 6.8195
head 0.785766 -6.33892 2.1059
rclavicle -7.15128e-014 1.96051e-014
rhumerus -22.7526 8.89743 -85.3759
rradius 43.8211
rwrist 10.3201
rhand -20.7309 15.9102
rfingers 7.12502
rthumb 5.63414 -13.9949
lclavicle -7.15128e-014 1.96051e-014
lhumerus -30.6059 6.4135 80.5623
lradius 5.16801
lwrist 16.3352
lhand -39.747 29.635
lfingers 7.12502
lthumb -12.7239 -300.773
rfemur 9.41094 11.2154 28.818
rtibia 18.709
rfoot -15.3101 -3.53469
rtoes 4.56392
lfemur -18.8844 -0.378463 -7.95748
ltibia 15.2484
lfoot -9.30953 13.501
ltoes -12.766
1686
root -8.46167 17.7186 1.402 -183.189 197.776 -185.153
lowerback 11.3644 -2.02115 5.76385
upperback 2.61887 -1.96977 1.30125
thorax -3.77086 -1.03064 -1.59813
lowerneck -0.887604 -9.42807 -0.80413
upperneck 1.10098 -12.7032 6.77106
head 1.01795 -6.30866 2.05805
rclavicle -6.7096e-014 1.02871e-014
rhumerus -22.7486 9.19178 -85.1898
rradius 43.8009
rwrist 10.2899
rhand -20.5599 16.367
rfingers 7.12502
rthumb 5.79928 -13.5336
lclavicle -6.7096e-014 1.02871e-014
lhumerus -31.147 6.62339 80.6175
lradius 5.2796
lwrist 16.32
lhand -38.0735 32.6485
lfingers 7.12502
lthumb -11.1101 -297.666
rfemur 8.90183 10.8932 28.7781
rtibia 18.6757
rfoot -15.4059 -3.07231
rtoes 6.26093
lfemur -19.202 -0.522891 -8.04113
ltibia 16.5554
lfoot -9.44648 14.4352
ltoes -11.4137
1687
root -8.46067 17.7206 1.23194 -183.271 197.766 -184.846
lowerback 11.5097 -2.17705 5.56685
upperback 2.6099 -2.19003 1.25636
thorax -3.87088 -1.14009 -1.49658
lowerneck -0.794112 -9.36888 -0.988882
upperneck 1.17101 -12.6315 6.98515
head 1.0505 -6.27243 2.16012
rclavicle -2.168e-015 2.27111e-014
rhumerus -22.6562 9.4485 -85.1352
rradius 43.5864
rwrist 10.4351
rhand -20.6077 16.6624
rfingers 7.12502
rthumb 5.75314 -13.2395
lclavicle -2.168e-015 2.27111e-014
lhumerus -31.6928 6.91151 80.5746
lradius 5.29035
lwrist 16.0726
lhand -35.5822 35.7681
lfingers 7.12502
lthumb -8.70662 -294.431
rfemur 8.38187 10.6064 28.432
rtibia 18.8112
rfoot -15.621 -2.3945
rtoes 9.26255
lfemur -19.4425 -0.67125 -8.45518
ltibia 18.0181
lfoot -9.79235 15.0658
ltoes -10.7112
1688
root -8.46109 17.7344 1.06292 -183.222 197.835 -184.693
lowerback 11.5392 -2.29738 5.59866
upperback 2.56705 -2.3436 1.2031
thorax -3.94603 -1.21856 -1.54429
lowerneck -0.291629 -9.26029 -1.23252
upperneck 0.837467 -12.4694 7.37537
head 0.898096 -6.20822 2.36312
rclavicle -4.01731e-014 1.2921e-014
rhumerus -22.7019 9.55102 -85.1024
rradius 43.4229
rwrist 10.5947
rhand -20.4751 17.5469
rfingers 7.12502
rthumb 5.8811 -12.3515
lclavicle -4.01731e-014 1.2921e-014
lhumerus -31.9423 7.07534 80.4445
lradius 4.57207
lwrist 15.6816
lhand -34.9855 34.2705
lfingers 7.12502
lthumb -8.13079 -295.906
rfemur 7.58512 10.4012 28.2339
rtibia 19.1203
rfoot -15.5582 -1.9145
rtoes 11.5752
lfemur -19.7907 -0.659421 -8.42438
ltibia 19.608
lfoot -9.94199 15.6704
ltoes -11.9321
